<svg width="11" height="15" viewBox="0 0 11 15" fill="none" xmlns="http://www.w3.org/2000/svg">
<path d="M4.69856 0.993686C4.40686 0.403005 3.79727 -0.0747692 3.04857 0.00972209C2.37878 0.0851202 1.38437 0.337458 0.70635 1.16494C0.0103783 2.01478 -0.249162 3.34012 0.285251 5.32585C0.855941 7.4442 1.70337 9.53261 2.75687 11.2175C3.80251 12.8903 5.09049 14.2293 6.56807 14.7427C7.87475 15.1966 8.87402 15.0071 9.6029 14.5085C10.306 14.0277 10.6919 13.3044 10.8916 12.8035C11.1153 12.2428 10.9679 11.6589 10.6762 11.2285L9.60028 9.64325C9.36259 9.29296 9.0204 9.02902 8.62386 8.89013C8.22731 8.75123 7.79729 8.74469 7.39681 8.87146L5.90987 9.34241C5.86291 9.35872 5.81225 9.36069 5.76418 9.3481C5.71612 9.33551 5.67276 9.30889 5.63949 9.27156C4.97755 8.48613 4.23595 7.39078 4.03438 6.28216C4.02799 6.25255 4.03238 6.22161 4.04672 6.19502C4.26549 5.82257 4.64171 5.40049 5.01644 5.03108C5.65108 4.40516 5.89155 3.41021 5.47269 2.56227L4.69856 0.993686Z" fill="#74D9A9"/>
</svg>
