<svg width="17" height="17" viewBox="0 0 17 17" fill="none" xmlns="http://www.w3.org/2000/svg">
<path d="M8.37695 0H12.6596C12.6596 0.0686064 12.6573 0.13605 12.6573 0.204656C12.6573 3.13729 12.6573 6.07108 12.6573 9.00371V9.21069C11.6956 9.34558 10.8875 9.75141 10.2363 10.4537C9.58163 11.1607 9.24209 12.0038 9.18511 12.9759H0V0C1.41748 0 2.83496 0 4.25243 0C4.25592 0.0674435 4.2629 0.13605 4.2629 0.203493C4.2629 1.83493 4.2629 3.46753 4.2629 5.09896V5.29781H8.38626V5.14664C8.38626 3.47334 8.38626 1.79888 8.38626 0.125585C8.38626 0.083723 8.38044 0.0418615 8.37811 0L8.37695 0ZM6.31993 8.73394H1.13607V9.65954H6.31993V8.73394ZM1.13607 11.7712H6.3176V10.8654H1.13607V11.7712Z" fill="white"/>
<path d="M7.46409 0C7.4606 0.0627923 7.45595 0.125585 7.45595 0.188377C7.45595 1.51515 7.45595 2.84077 7.45595 4.16755V4.3629H5.19775V0H7.46525H7.46409Z" fill="white"/>
<path d="M10.1248 13.1213C10.1306 11.4655 11.4922 10.1096 13.1353 10.1236C14.8121 10.1375 16.1307 11.4818 16.1238 13.1702C16.1168 14.8132 14.7574 16.1319 13.0783 16.1237C11.4597 16.1168 10.119 14.7528 10.1248 13.1213ZM14.1586 11.7876C13.7249 12.2283 13.2958 12.6644 12.8446 13.1225C12.583 12.8551 12.3202 12.5853 12.0609 12.3213C11.8434 12.5399 11.6283 12.7539 11.4248 12.9574C11.9074 13.4423 12.3946 13.9307 12.869 14.4074C13.5167 13.7597 14.1714 13.1051 14.8191 12.4574C14.6179 12.2539 14.4063 12.0388 14.1586 11.7876Z" fill="white"/>
</svg>
