<svg width="16" height="16" viewBox="0 0 16 16" fill="none" xmlns="http://www.w3.org/2000/svg">
<path fill-rule="evenodd" clip-rule="evenodd" d="M12.4435 8.7135C12.101 10.8585 10.241 12.5 8 12.5C5.5165 12.5 3.5 10.4835 3.5 8C3.5 5.759 5.1415 3.899 7.2865 3.5565C7.519 3.5195 7.757 3.5 8 3.5C10.4835 3.5 12.5 5.5165 12.5 8C12.5 8.243 12.4805 8.481 12.4435 8.7135ZM6.0135 5.1185C5.0995 5.7505 4.5 6.806 4.5 8C4.5 9.9315 6.0685 11.5 8 11.5C9.194 11.5 10.249 10.901 10.8805 9.9875C10.4535 10.157 9.9875 10.25 9.5 10.25C7.4305 10.25 5.75 8.5695 5.75 6.5C5.75 6.0125 5.843 5.547 6.0135 5.1185ZM7.5 1.5C7.5 1.224 7.724 1 8 1C8.276 1 8.5 1.224 8.5 1.5V2.5C8.5 2.776 8.276 3 8 3C7.724 3 7.5 2.776 7.5 2.5V1.5ZM12.2425 3.0505C12.438 2.855 12.7545 2.855 12.9495 3.0505C13.145 3.2455 13.145 3.562 12.9495 3.7575L12.2425 4.4645C12.0475 4.6595 11.7305 4.6595 11.5355 4.4645C11.3405 4.2695 11.3405 3.9525 11.5355 3.7575L12.2425 3.0505ZM14.5 7.5C14.776 7.5 15 7.724 15 8C15 8.276 14.776 8.5 14.5 8.5H13.5C13.224 8.5 13 8.276 13 8C13 7.724 13.224 7.5 13.5 7.5H14.5ZM12.9495 12.2425C13.145 12.438 13.145 12.7545 12.9495 12.9495C12.7545 13.145 12.438 13.145 12.2425 12.9495L11.5355 12.2425C11.3405 12.0475 11.3405 11.7305 11.5355 11.5355C11.7305 11.3405 12.0475 11.3405 12.2425 11.5355L12.9495 12.2425ZM8.5 14.5C8.5 14.776 8.276 15 8 15C7.724 15 7.5 14.776 7.5 14.5V13.5C7.5 13.224 7.724 13 8 13C8.276 13 8.5 13.224 8.5 13.5V14.5ZM3.7575 12.9495C3.562 13.145 3.2455 13.145 3.0505 12.9495C2.855 12.7545 2.855 12.438 3.0505 12.2425L3.7575 11.5355C3.9525 11.3405 4.2695 11.3405 4.4645 11.5355C4.6595 11.7305 4.6595 12.0475 4.4645 12.2425L3.7575 12.9495ZM1.5 8.5C1.224 8.5 1 8.276 1 8C1 7.724 1.224 7.5 1.5 7.5H2.5C2.776 7.5 3 7.724 3 8C3 8.276 2.776 8.5 2.5 8.5H1.5ZM3.0505 3.7575C2.855 3.562 2.855 3.2455 3.0505 3.0505C3.2455 2.855 3.562 2.855 3.7575 3.0505L4.4645 3.7575C4.6595 3.9525 4.6595 4.2695 4.4645 4.4645C4.2695 4.6595 3.9525 4.6595 3.7575 4.4645L3.0505 3.7575Z" fill="#262D34"/>
</svg>
