<svg width="20" height="21" viewBox="0 0 20 21" fill="none" xmlns="http://www.w3.org/2000/svg">
<g clip-path="url(#clip0_14302_46899)">
<path d="M14.5833 9.66663C11.5967 9.66663 9.16666 12.0966 9.16666 15.0833C9.16666 18.07 11.5967 20.5 14.5833 20.5C17.57 20.5 20 18.07 20 15.0833C20 12.0966 17.57 9.66663 14.5833 9.66663ZM16.9308 14.0341L14.2225 17.1591C14.1083 17.29 13.9458 17.3683 13.7725 17.3741C13.765 17.3741 13.7575 17.3741 13.75 17.3741C13.5842 17.3741 13.425 17.3083 13.3083 17.1908L11.85 15.7325C11.6058 15.4883 11.6058 15.0925 11.85 14.8483C12.0942 14.6041 12.49 14.6041 12.7342 14.8483L13.7183 15.8316L15.9867 13.2141C16.2125 12.9541 16.6067 12.925 16.8683 13.1508C17.1283 13.3791 17.1567 13.7733 16.9308 14.0341Z" fill="#1455AC"/>
<path d="M7.68333 0.5L3.63333 0.516667C3.10833 0.516667 2.61667 0.808333 2.36667 1.26667L0.25 5.1L7.275 5.08333L7.68333 0.5Z" fill="#1455AC"/>
<path d="M16.4 5.06661L14.2583 1.23328C14 0.774943 13.5167 0.483276 12.9833 0.483276L8.93333 0.499943L9.35833 5.08328L16.4 5.06661Z" fill="#1455AC"/>
<path d="M16.6667 8.30835C16.0083 8.10835 15.3083 8.00002 14.5833 8.00002C10.675 8.00002 7.5 11.175 7.5 15.0834C7.5 15.8084 7.60833 16.5167 7.81667 17.175L1.34167 17.1917C1.33333 17.1917 1.33333 17.1917 1.33333 17.1917C0.616667 17.1917 0.0250001 16.6 0.0250001 15.875L-0.00833321 6.35002L7.7 6.33335H8.95L16.6583 6.30835L16.6667 8.30835Z" fill="#1455AC"/>
</g>
<defs>
<clipPath id="clip0_14302_46899">
<rect width="20" height="20" fill="white" transform="translate(0 0.5)"/>
</clipPath>
</defs>
</svg>
