<svg width="16" height="16" viewBox="0 0 16 16" fill="none" xmlns="http://www.w3.org/2000/svg">
<path d="M8.00016 14.6666C4.31816 14.6666 1.3335 11.682 1.3335 7.99998C1.3335 4.31798 4.31816 1.33331 8.00016 1.33331C11.6822 1.33331 14.6668 4.31798 14.6668 7.99998C14.6628 11.68 11.6802 14.6626 8.00016 14.6666ZM7.3335 11.3333V12.6666H8.66683V11.3333H7.3335ZM8.00016 4.66665C8.35378 4.66665 8.69292 4.80712 8.94297 5.05717C9.19302 5.30722 9.3335 5.64636 9.3335 5.99998C9.33462 6.17508 9.30036 6.34859 9.23277 6.51012C9.16518 6.67165 9.06565 6.81786 8.94016 6.93998L8.1135 7.77998C7.61445 8.28112 7.33403 8.95941 7.3335 9.66665V9.99998H8.66683C8.64127 9.64652 8.69847 9.29197 8.83386 8.96447C8.96926 8.63697 9.17914 8.34554 9.44683 8.11331L10.0468 7.49998C10.2442 7.30337 10.4007 7.06956 10.5071 6.81209C10.6135 6.55461 10.6678 6.27858 10.6668 5.99998C10.6668 5.29274 10.3859 4.61446 9.88578 4.11436C9.38568 3.61426 8.70741 3.33331 8.00016 3.33331C7.29292 3.33331 6.61464 3.61426 6.11454 4.11436C5.61445 4.61446 5.3335 5.29274 5.3335 5.99998H6.66683C6.66683 5.64636 6.80731 5.30722 7.05735 5.05717C7.3074 4.80712 7.64654 4.66665 8.00016 4.66665Z" fill="#1455AC"/>
</svg>
