<svg width="114" height="114" viewBox="0 0 114 114" fill="none" xmlns="http://www.w3.org/2000/svg">
<path fill-rule="evenodd" clip-rule="evenodd" d="M18.6115 24.2328V61.7615C18.6115 66.4883 19.7595 70.7232 22.1199 74.7063C27.817 84.2963 40.6598 91.9176 51.9897 98.6423C53.7277 99.673 55.38 100.655 56.9787 101.628C59.0817 100.337 61.2274 99.0607 63.2981 97.8231C65.2079 96.6854 67.1822 95.5071 69.1026 94.3317C82.9645 85.8398 95.3996 76.9582 95.3996 61.7617V24.2328L57.0003 11.3009L18.6115 24.2328ZM79.6275 49.2166V74.1118C79.6275 76.9006 77.3457 79.1824 74.557 79.1824H39.4432C36.6544 79.1824 34.3726 76.9008 34.3726 74.1118V49.2166C34.3726 46.4278 36.6542 44.1461 39.4432 44.1461H74.5572C77.346 44.1461 79.6278 46.4278 79.6278 49.2166H79.6275ZM71.597 35.1881V41.4744H65.1094V35.1881C65.1094 30.7279 61.4603 27.0786 57.0001 27.0786C52.5398 27.0786 48.8905 30.7279 48.8905 35.1881V41.4744H42.403V35.1881C42.403 27.1596 48.9715 20.5913 56.9999 20.5913C65.0282 20.5913 71.597 27.1601 71.597 35.1881ZM100.491 17.0967L57.0001 2.44922L13.5091 17.0967C11.5016 17.7726 10.2078 19.5737 10.2078 21.6918V61.766C10.2078 87.896 37.4068 98.7418 57.0003 111.551C76.5936 98.7418 103.793 87.896 103.793 61.766V21.6918C103.793 19.5735 102.499 17.7726 100.491 17.0967H100.491ZM98.0817 61.7615C98.0817 69.5166 95.099 76.4054 88.9622 82.8243C83.7048 88.3242 76.9563 92.6502 70.4973 96.6092C68.5553 97.7935 66.5812 98.9738 64.6713 100.116C62.3752 101.485 59.9935 102.902 57.6865 104.331C57.4719 104.465 57.2361 104.532 56.9892 104.532C56.7423 104.532 56.5062 104.467 56.2918 104.335C54.4894 103.231 52.6118 102.118 50.627 100.94C39.0181 94.0531 25.8643 86.2468 19.8238 76.0694C17.2058 71.663 15.9291 66.9828 15.9291 61.7615V23.2729C15.9291 22.6982 16.3048 22.1888 16.8411 22.006L56.5817 8.62437C56.8607 8.53085 57.1504 8.53085 57.4294 8.62437L97.1699 22.006C97.7063 22.1888 98.0819 22.6982 98.0819 23.2729V61.7615H98.0817ZM52.736 57.7722C52.736 55.4171 54.6451 53.5079 57.0001 53.5079C59.3551 53.5079 61.2644 55.4169 61.2644 57.7722C61.2644 59.2212 60.5414 60.501 59.4368 61.2717V67.3836C59.4368 68.7237 58.3405 69.8201 57.0001 69.8201C55.6597 69.8201 54.5633 68.7237 54.5633 67.3836V61.2717C53.4587 60.501 52.7358 59.221 52.7358 57.7719L52.736 57.7722Z" fill="url(#paint0_linear_11700_65349)"/>
<rect x="2" y="67" width="110" height="27.2277" rx="4.35644" fill="white"/>
<rect x="2.54455" y="67.5446" width="108.911" height="26.1386" rx="3.81188" stroke="black" stroke-opacity="0.08" stroke-width="1.08911"/>
<path d="M18.3036 81.2263L13.665 80.0845L14.3879 77.7892L18.8578 79.6921L18.4843 74.6138H20.9181L20.4964 79.7634L24.9301 77.8962L25.665 80.2272L20.9542 81.3214L24.1229 85.1747L22.1349 86.6138L19.5807 82.2253L17.0385 86.4829L15.0385 85.1153L18.3036 81.2263Z" fill="#050032"/>
<path d="M43.1935 81.2263L38.5549 80.0845L39.2778 77.7892L43.7477 79.6921L43.3742 74.6138H45.8079L45.3863 79.7634L49.82 77.8962L50.5549 80.2272L45.8441 81.3214L49.0128 85.1747L47.0248 86.6138L44.4706 82.2253L41.9284 86.4829L39.9284 85.1153L43.1935 81.2263Z" fill="#050032"/>
<path d="M68.0836 81.2263L63.4451 80.0845L64.168 77.7892L68.6378 79.6921L68.2643 74.6138H70.6981L70.2764 79.7634L74.7101 77.8962L75.4451 80.2272L70.7342 81.3214L73.9029 85.1747L71.9149 86.6138L69.3607 82.2253L66.8186 86.4829L64.8186 85.1153L68.0836 81.2263Z" fill="#050032"/>
<path d="M92.9735 81.2263L88.335 80.0845L89.0579 77.7892L93.5277 79.6921L93.1542 74.6138H95.588L95.1663 79.7634L99.6 77.8962L100.335 80.2272L95.6241 81.3214L98.7928 85.1747L96.8048 86.6138L94.2506 82.2253L91.7085 86.4829L89.7085 85.1153L92.9735 81.2263Z" fill="#050032"/>
<defs>
<linearGradient id="paint0_linear_11700_65349" x1="57.0002" y1="111.551" x2="57.0002" y2="2.44922" gradientUnits="userSpaceOnUse">
<stop stop-color="#1455AC"/>
<stop offset="1" stop-color="#0071DA"/>
</linearGradient>
</defs>
</svg>
