<svg width="51" height="50" viewBox="0 0 51 50" fill="none" xmlns="http://www.w3.org/2000/svg">
<rect x="0.166748" width="50" height="50" rx="10" fill="#E9F3FF"/>
<path d="M17.3165 30.8414L17.2999 30.8581C17.0749 30.3664 16.9332 29.8081 16.8749 29.1914C16.9332 29.7997 17.0915 30.3497 17.3165 30.8414Z" fill="#1455AC"/>
<path d="M22.6668 23.6498C23.7622 23.6498 24.6501 22.7618 24.6501 21.6664C24.6501 20.5711 23.7622 19.6831 22.6668 19.6831C21.5714 19.6831 20.6835 20.5711 20.6835 21.6664C20.6835 22.7618 21.5714 23.6498 22.6668 23.6498Z" fill="#1455AC"/>
<path d="M28.6584 16.6665H21.675C18.6417 16.6665 16.8334 18.4748 16.8334 21.5082V28.4915C16.8334 29.3998 16.9917 30.1915 17.3 30.8582C18.0167 32.4415 19.55 33.3332 21.675 33.3332H28.6584C31.6917 33.3332 33.5 31.5248 33.5 28.4915V26.5832V21.5082C33.5 18.4748 31.6917 16.6665 28.6584 16.6665ZM32.1417 25.4165C31.4917 24.8582 30.4417 24.8582 29.7917 25.4165L26.325 28.3915C25.675 28.9498 24.625 28.9498 23.975 28.3915L23.6917 28.1582C23.1 27.6415 22.1584 27.5915 21.4917 28.0415L18.375 30.1332C18.1917 29.6665 18.0834 29.1248 18.0834 28.4915V21.5082C18.0834 19.1582 19.325 17.9165 21.675 17.9165H28.6584C31.0084 17.9165 32.25 19.1582 32.25 21.5082V25.5082L32.1417 25.4165Z" fill="#1455AC"/>
</svg>
