<svg width="16" height="16" viewBox="0 0 16 16" fill="none" xmlns="http://www.w3.org/2000/svg">
<path d="M14.6667 2H1.33333C0.6 2 0 2.6 0 3.33333V12.6667C0 13.4 0.6 14 1.33333 14H14.6667C15.4 14 15.9933 13.4 15.9933 12.6667L16 3.33333C16 2.6 15.4 2 14.6667 2ZM6 5.33333C7.1 5.33333 8 6.23333 8 7.33333C8 8.43333 7.1 9.33333 6 9.33333C4.9 9.33333 4 8.43333 4 7.33333C4 6.23333 4.9 5.33333 6 5.33333ZM1.38667 12.6667C2.30667 11.0733 4.02667 10 6 10C7.97333 10 9.69333 11.0733 10.6133 12.6667H1.38667ZM13.7333 7C13.5933 7.24 13.2867 7.32 13.0533 7.18L12.5067 6.86V7.49333C12.5067 7.76667 12.28 7.99333 12.0067 7.99333C11.7333 7.99333 11.5067 7.76667 11.5067 7.49333V6.86667L10.96 7.18667C10.9035 7.2195 10.8411 7.24088 10.7764 7.24961C10.7117 7.25833 10.6459 7.25421 10.5827 7.2375C10.5196 7.22078 10.4603 7.1918 10.4084 7.15219C10.3565 7.11258 10.3128 7.06314 10.28 7.00667C10.2472 6.9502 10.2258 6.88782 10.2171 6.82308C10.2083 6.75835 10.2125 6.69253 10.2292 6.62939C10.2459 6.56624 10.2749 6.50701 10.3145 6.45507C10.3541 6.40313 10.4035 6.3595 10.46 6.32667L11 6L10.4533 5.68C10.3966 5.64743 10.3469 5.60393 10.3071 5.55202C10.2673 5.50011 10.2381 5.44081 10.2214 5.37757C10.2047 5.31433 10.2006 5.24839 10.2095 5.18358C10.2185 5.11877 10.2401 5.05637 10.2733 5C10.4133 4.76 10.72 4.68 10.9533 4.82L11.5 5.14V4.5C11.5 4.22667 11.7267 4 12 4C12.2733 4 12.5 4.22667 12.5 4.5V5.13333L13.0467 4.81333C13.1607 4.74703 13.2964 4.72874 13.4239 4.7625C13.5515 4.79626 13.6604 4.87929 13.7267 4.99333C13.793 5.10738 13.8113 5.24309 13.7775 5.37061C13.7437 5.49814 13.6607 5.60703 13.5467 5.67333L13 6L13.5467 6.32C13.7867 6.45333 13.8733 6.76 13.7333 7Z" fill="#1455AC"/>
</svg>
