<svg width="14" height="14" viewBox="0 0 14 14" fill="none" xmlns="http://www.w3.org/2000/svg">
<g clip-path="url(#clip0_14302_46715)">
<path d="M7 13.125C5.37555 13.125 3.81763 12.4797 2.66897 11.331C1.52031 10.1824 0.875 8.62445 0.875 7C0.875 5.37555 1.52031 3.81763 2.66897 2.66897C3.81763 1.52031 5.37555 0.875 7 0.875C8.62445 0.875 10.1824 1.52031 11.331 2.66897C12.4797 3.81763 13.125 5.37555 13.125 7C13.125 8.62445 12.4797 10.1824 11.331 11.331C10.1824 12.4797 8.62445 13.125 7 13.125ZM7 14C8.85652 14 10.637 13.2625 11.9497 11.9497C13.2625 10.637 14 8.85652 14 7C14 5.14348 13.2625 3.36301 11.9497 2.05025C10.637 0.737498 8.85652 0 7 0C5.14348 0 3.36301 0.737498 2.05025 2.05025C0.737498 3.36301 0 5.14348 0 7C0 8.85652 0.737498 10.637 2.05025 11.9497C3.36301 13.2625 5.14348 14 7 14Z" fill="#1455AC"/>
<path d="M7.81374 5.7645L5.80999 6.01562L5.73824 6.34812L6.13199 6.42075C6.38924 6.482 6.43999 6.57475 6.38399 6.83113L5.73824 9.86562C5.56849 10.6505 5.83011 11.0197 6.44524 11.0197C6.92211 11.0197 7.47599 10.7993 7.72711 10.4965L7.80411 10.1325C7.62911 10.2865 7.37361 10.3478 7.20386 10.3478C6.96324 10.3478 6.87574 10.1789 6.93786 9.88138L7.81374 5.7645ZM7.87499 3.9375C7.87499 4.16956 7.7828 4.39212 7.61871 4.55622C7.45461 4.72031 7.23205 4.8125 6.99999 4.8125C6.76792 4.8125 6.54536 4.72031 6.38127 4.55622C6.21718 4.39212 6.12499 4.16956 6.12499 3.9375C6.12499 3.70544 6.21718 3.48288 6.38127 3.31878C6.54536 3.15469 6.76792 3.0625 6.99999 3.0625C7.23205 3.0625 7.45461 3.15469 7.61871 3.31878C7.7828 3.48288 7.87499 3.70544 7.87499 3.9375Z" fill="#1455AC"/>
</g>
<defs>
<clipPath id="clip0_14302_46715">
<rect width="14" height="14" fill="white"/>
</clipPath>
</defs>
</svg>
