<svg width="16" height="14" viewBox="0 0 16 14" fill="none" xmlns="http://www.w3.org/2000/svg">
<g clip-path="url(#clip0_11700_64477)">
<rect x="6.85693" y="5.78979" width="8.38095" height="7.2605" fill="#1455AC"/>
<path d="M10 0.785645H0.5V8.9285H6V13.4285H15.5V5.28564H10V0.785645ZM4.63453 2.71422L3.06541 6.55261H4.125L4.38019 5.9285H6V8.07136H1.5V1.64279H9V5.28564H6.91663L5.86562 2.71422H4.63453ZM5.76944 5.07136H4.73056L5.25 3.8007L5.76944 5.07136ZM14.5 6.14279V12.5714H7V6.14279H14.5Z" fill="#1455AC"/>
<path d="M9.91975 10.0129C10.0154 10.1446 10.1207 10.2709 10.235 10.3911C9.87253 10.5587 9.46085 10.6426 9 10.6429V11.5001C9.75441 11.5001 10.4284 11.3284 11 10.9959C11.5716 11.3284 12.2456 11.5001 13 11.5001V10.6429C12.5401 10.6429 12.1284 10.5589 11.765 10.391C11.8793 10.2708 11.9846 10.1445 12.0802 10.0129C12.3685 9.6113 12.5804 9.17298 12.7082 8.71436H13.25V7.85721H11.5V7.21436H10.5V7.85721H8.75V8.71436H9.29181C9.41958 9.17298 9.63153 9.6113 9.91975 10.0129ZM11.6728 8.71436C11.5694 9.011 11.4212 9.29482 11.2322 9.55864C11.1616 9.65592 11.084 9.74938 11 9.8385C10.9221 9.75595 10.8498 9.66964 10.7834 9.57999C10.5867 9.31029 10.4332 9.01914 10.3271 8.71436H11.6728Z" fill="white"/>
</g>
<defs>
<clipPath id="clip0_11700_64477">
<rect width="16" height="13.7143" fill="white" transform="translate(0 0.142822)"/>
</clipPath>
</defs>
</svg>
