<svg width="16" height="15" viewBox="0 0 16 15" fill="none" xmlns="http://www.w3.org/2000/svg">
<path d="M3 3.08065V5.13502H13V3.08065H3ZM9.998 8.22171V11.3064H12.998V8.22171H9.998ZM0 2.82771C0 2.07779 0.289731 1.35858 0.805456 0.828303C1.32118 0.298028 2.02065 0.00012207 2.75 0.00012207H13.25C13.9792 0.000122021 14.6785 0.297886 15.1942 0.827939C15.7099 1.35799 15.9997 2.07694 16 2.82668V11.5665C16 12.3164 15.7103 13.0356 15.1945 13.5659C14.6788 14.0962 13.9793 14.3941 13.25 14.3941H2.75C2.02065 14.3941 1.32118 14.0962 0.805456 13.5659C0.289731 13.0356 0 12.3164 0 11.5665V2.82668V2.82771ZM2 2.56654V5.64913C2 5.78548 2.05268 5.91624 2.14645 6.01265C2.24021 6.10907 2.36739 6.16323 2.5 6.16323H13.5C13.6326 6.16323 13.7598 6.10907 13.8536 6.01265C13.9473 5.91624 14 5.78548 14 5.64913V2.56654C14 2.43019 13.9473 2.29943 13.8536 2.20301C13.7598 2.1066 13.6326 2.05244 13.5 2.05244H2.5C2.36739 2.05244 2.24021 2.1066 2.14645 2.20301C2.05268 2.29943 2 2.43019 2 2.56654ZM8.998 7.70761V11.8205C8.998 11.9568 9.05068 12.0876 9.14445 12.184C9.23821 12.2804 9.36539 12.3346 9.498 12.3346H13.498C13.6306 12.3346 13.7578 12.2804 13.8516 12.184C13.9453 12.0876 13.998 11.9568 13.998 11.8205V7.70761C13.998 7.57126 13.9453 7.44049 13.8516 7.34408C13.7578 7.24767 13.6306 7.1935 13.498 7.1935H9.498C9.36539 7.1935 9.23821 7.24767 9.14445 7.34408C9.05068 7.44049 8.998 7.57126 8.998 7.70761ZM2.5 7.70761C2.36739 7.70761 2.24021 7.76177 2.14645 7.85819C2.05268 7.9546 2 8.08537 2 8.22171C2 8.35806 2.05268 8.48883 2.14645 8.58524C2.24021 8.68166 2.36739 8.73582 2.5 8.73582H7.504C7.63661 8.73582 7.76379 8.68166 7.85755 8.58524C7.95132 8.48883 8.004 8.35806 8.004 8.22171C8.004 8.08537 7.95132 7.9546 7.85755 7.85819C7.76379 7.76177 7.63661 7.70761 7.504 7.70761H2.5ZM2 11.3064C2 11.4427 2.05268 11.5735 2.14645 11.6699C2.24021 11.7663 2.36739 11.8205 2.5 11.8205H7.504C7.63661 11.8205 7.76379 11.7663 7.85755 11.6699C7.95132 11.5735 8.004 11.4427 8.004 11.3064C8.004 11.17 7.95132 11.0392 7.85755 10.9428C7.76379 10.8464 7.63661 10.7922 7.504 10.7922H2.5C2.36739 10.7922 2.24021 10.8464 2.14645 10.9428C2.05268 11.0392 2 11.17 2 11.3064Z" fill="#1455AC"/>
</svg>
