<svg width="48" height="48" viewBox="0 0 48 48" fill="none" xmlns="http://www.w3.org/2000/svg">
<path d="M22.1425 34.6017H16.9043C16.4764 34.6017 16.1217 34.247 16.1217 33.8191C16.1217 33.3912 16.4764 33.0365 16.9043 33.0365H22.5808C23.0608 31.5965 23.8121 30.2817 24.7616 29.1443H16.9042C16.4763 29.1443 16.1216 28.7999 16.1216 28.3617C16.1216 27.9338 16.4763 27.5791 16.9042 27.5791H26.3059C28.2259 25.9513 30.6363 24.8869 33.2763 24.6678V2.1808C33.2763 0.9808 32.2954 0 31.0954 0H4.90429C3.70429 0 2.72339 0.9809 2.72339 2.1808V39.2765C2.72339 40.4765 3.70429 41.4573 4.90429 41.4573H22.6851C22.1738 40.1008 21.892 38.6295 21.892 37.0956C21.892 36.2399 21.9756 35.4052 22.1425 34.6017ZM27.819 23.687H16.9043C16.4764 23.687 16.1217 23.3426 16.1217 22.9044C16.1217 22.4765 16.4764 22.1218 16.9043 22.1218H27.819C28.2469 22.1218 28.6016 22.4765 28.6016 22.9044C28.6016 23.3426 28.2469 23.687 27.819 23.687ZM27.819 18.24H16.9043C16.4764 18.24 16.1217 17.8853 16.1217 17.4574C16.1217 17.0192 16.4764 16.6748 16.9043 16.6748H27.819C28.2469 16.6748 28.6016 17.0192 28.6016 17.4574C28.6016 17.8853 28.2469 18.24 27.819 18.24ZM27.819 12.7826H16.9043C16.4764 12.7826 16.1217 12.4278 16.1217 12C16.1217 11.5722 16.4764 11.2174 16.9043 11.2174H27.819C28.2469 11.2174 28.6016 11.5721 28.6016 12C28.6016 12.4279 28.2469 12.7826 27.819 12.7826ZM12.5425 34.6017H9.27639C8.83809 34.6017 8.49379 34.247 8.49379 33.8191C8.49379 33.3912 8.83809 33.0365 9.27639 33.0365H12.5425C12.9807 33.0365 13.3251 33.3913 13.3251 33.8191C13.3251 34.2469 12.9807 34.6017 12.5425 34.6017ZM12.5425 29.1443H9.27639C8.83809 29.1443 8.49379 28.7999 8.49379 28.3617C8.49379 27.9338 8.83809 27.5791 9.27639 27.5791H12.5425C12.9807 27.5791 13.3251 27.9338 13.3251 28.3617C13.3251 28.7999 12.9807 29.1443 12.5425 29.1443ZM12.5425 23.687H9.27639C8.83809 23.687 8.49379 23.3426 8.49379 22.9044C8.49379 22.4765 8.83809 22.1218 9.27639 22.1218H12.5425C12.9807 22.1218 13.3251 22.4765 13.3251 22.9044C13.3251 23.3426 12.9807 23.687 12.5425 23.687ZM9.80859 12.0834L11.4155 12.6156C12.5633 13.0017 13.3251 14.0661 13.3251 15.2765C13.3251 16.633 12.3964 17.7704 11.1442 18.1147V18.9078C11.1442 19.346 10.7998 19.6904 10.3616 19.6904C9.93379 19.6904 9.57899 19.346 9.57899 18.9078V18.1147C8.32679 17.7703 7.39819 16.633 7.39819 15.2765C7.39819 14.8382 7.75289 14.4939 8.18079 14.4939C8.60869 14.4939 8.96339 14.8382 8.96339 15.2765C8.96339 16.0487 9.58949 16.6747 10.3616 16.6747C11.1337 16.6747 11.7599 16.0486 11.7599 15.2765C11.7599 14.7443 11.426 14.2643 10.9147 14.0974L9.31809 13.5652C8.17029 13.1791 7.39809 12.1147 7.39809 10.9043C7.39809 9.5477 8.32669 8.4104 9.57889 8.066V7.2729C9.57889 6.8451 9.93369 6.4903 10.3615 6.4903C10.7997 6.4903 11.1441 6.8451 11.1441 7.2729V8.066C12.3963 8.4104 13.325 9.5477 13.325 10.9043C13.325 11.3425 12.9806 11.6869 12.5424 11.6869C12.1145 11.6869 11.7598 11.3425 11.7598 10.9043C11.7598 10.1321 11.1337 9.506 10.3615 9.506C9.58929 9.506 8.96329 10.1321 8.96329 10.9043C8.96329 11.4364 9.30769 11.9164 9.80859 12.0834ZM15.0364 6.5426C15.0364 6.1148 15.3912 5.76 15.819 5.76H27.819C28.2469 5.76 28.6016 6.1148 28.6016 6.5426C28.6016 6.9809 28.2469 7.3252 27.819 7.3252H15.819C15.3912 7.3252 15.0364 6.9809 15.0364 6.5426ZM34.3616 26.1808C28.3407 26.1808 23.4572 31.0643 23.4572 37.0956C23.4572 43.1165 28.3407 48 34.3616 48C40.3929 48 45.2764 43.1165 45.2764 37.0956C45.2764 31.0643 40.3929 26.1808 34.3616 26.1808ZM38.4625 40.08C38.7651 40.393 38.7651 40.8835 38.4625 41.1861C38.306 41.3426 38.1078 41.4157 37.9095 41.4157C37.7112 41.4157 37.513 41.3426 37.3564 41.1861L34.3616 38.1913L31.3668 41.1861C31.2207 41.3426 31.0224 41.4157 30.8138 41.4157C30.6155 41.4157 30.4173 41.3426 30.2607 41.1861C29.9581 40.8835 29.9581 40.393 30.2607 40.08L33.2555 37.0957L30.2607 34.1009C29.9581 33.7879 29.9581 33.2974 30.2607 32.9948C30.5737 32.6818 31.0642 32.6818 31.3668 32.9948L34.3616 35.9896L37.3564 32.9948C37.659 32.6818 38.1599 32.6818 38.4625 32.9948C38.7651 33.2974 38.7651 33.7879 38.4625 34.1009L35.4677 37.0957L38.4625 40.08Z" fill="url(#paint0_linear_11700_64640)"/>
<defs>
<linearGradient id="paint0_linear_11700_64640" x1="24.0026" y1="47.9936" x2="24.0026" y2="-0.0209032" gradientUnits="userSpaceOnUse">
<stop stop-color="#9B9B9B"/>
<stop offset="1" stop-color="#DDDDDD"/>
</linearGradient>
</defs>
</svg>
