<svg width="51" height="50" viewBox="0 0 51 50" fill="none" xmlns="http://www.w3.org/2000/svg">
<rect x="0.66687" width="50" height="50" rx="10" fill="#E9F3FF"/>
<path d="M29.2255 26.3498C29.2255 28.1284 27.7786 29.5753 26 29.5753C24.2214 29.5753 22.775 28.1284 22.775 26.3498C22.775 24.5712 24.2214 23.1243 26 23.1243C27.7786 23.1243 29.2255 24.5717 29.2255 26.3498ZM36 21.7697V30.931C36 32.1523 35.0098 33.1425 33.7885 33.1425H18.2115C16.9902 33.1425 16 32.1523 16 30.931V21.7697C16 20.5484 16.9902 19.5582 18.2115 19.5582H20.9317V18.793C20.9317 17.7243 21.7975 16.8579 22.8668 16.8579H29.1332C30.2025 16.8579 31.0683 17.7243 31.0683 18.793V19.5576H33.7885C35.0098 19.5582 36 20.5484 36 21.7697ZM30.8842 26.3498C30.8842 23.6567 28.6931 21.4656 26 21.4656C23.3075 21.4656 21.1164 23.6567 21.1164 26.3498C21.1164 29.0429 23.3075 31.234 26 31.234C28.6931 31.234 30.8842 29.0429 30.8842 26.3498Z" fill="#1455AC"/>
</svg>
