<svg width="18" height="18" viewBox="0 0 18 18" fill="none" xmlns="http://www.w3.org/2000/svg">
<path d="M9.00758 11.8969C8.54039 11.8969 8.10289 11.7156 7.77164 11.3844C7.44195 11.0531 7.25914 10.6156 7.25914 10.1484C7.25914 9.68124 7.44195 9.24374 7.77164 8.91249C8.10289 8.5828 8.54039 8.39999 9.00758 8.39999C9.47476 8.39999 9.91226 8.5828 10.2435 8.91249C10.5732 9.24374 10.756 9.68124 10.756 10.1484C10.756 10.6156 10.5732 11.0531 10.2435 11.3844C10.0817 11.5474 9.88915 11.6767 9.67698 11.7646C9.4648 11.8526 9.23726 11.8976 9.00758 11.8969ZM15.4498 8.21718L14.4279 9.09061C14.4763 9.38749 14.5013 9.69061 14.5013 9.99218C14.5013 10.2937 14.4763 10.5984 14.4279 10.8937L15.4498 11.7672C15.527 11.8333 15.5822 11.9213 15.6082 12.0195C15.6341 12.1178 15.6296 12.2216 15.5951 12.3172L15.581 12.3578C15.2998 13.1442 14.8784 13.8732 14.3373 14.5094L14.3091 14.5422C14.2434 14.6194 14.1559 14.675 14.0579 14.7015C13.96 14.728 13.8564 14.7242 13.7607 14.6906L12.492 14.2391C12.0232 14.6234 11.5013 14.9266 10.9357 15.1375L10.6904 16.4641C10.6719 16.564 10.6234 16.6559 10.5514 16.7276C10.4794 16.7994 10.3873 16.8475 10.2873 16.8656L10.2451 16.8734C9.43258 17.0203 8.57633 17.0203 7.76383 16.8734L7.72164 16.8656C7.62163 16.8475 7.52951 16.7994 7.4575 16.7276C7.3855 16.6559 7.33702 16.564 7.31851 16.4641L7.07164 15.1312C6.51137 14.9186 5.98944 14.6162 5.52633 14.2359L4.2482 14.6906C4.15252 14.7245 4.04881 14.7284 3.95085 14.7019C3.85289 14.6753 3.76531 14.6197 3.69976 14.5422L3.67164 14.5094C3.13147 13.8725 2.71019 13.1437 2.42789 12.3578L2.41383 12.3172C2.34351 12.1219 2.40133 11.9031 2.55914 11.7672L3.59351 10.8844C3.54508 10.5906 3.52164 10.2906 3.52164 9.99374C3.52164 9.69374 3.54508 9.39374 3.59351 9.10311L2.56226 8.2203C2.48507 8.15422 2.42982 8.0662 2.40386 7.96795C2.37791 7.86971 2.38247 7.76589 2.41695 7.6703L2.43101 7.62967C2.71383 6.84374 3.13101 6.11718 3.67476 5.47811L3.70289 5.4453C3.7686 5.36804 3.85618 5.3125 3.95408 5.286C4.05198 5.2595 4.15562 5.26329 4.25133 5.29686L5.52945 5.75155C5.99508 5.36874 6.51383 5.06561 7.07476 4.85624L7.32164 3.52343C7.34015 3.42349 7.38862 3.33155 7.46063 3.25983C7.53263 3.1881 7.62476 3.13998 7.72476 3.12186L7.76695 3.11405C8.58744 2.96638 9.42771 2.96638 10.2482 3.11405L10.2904 3.12186C10.3904 3.13998 10.4825 3.1881 10.5545 3.25983C10.6265 3.33155 10.675 3.42349 10.6935 3.52343L10.9388 4.84999C11.5045 5.06249 12.0263 5.36405 12.4951 5.74843L13.7638 5.29686C13.8595 5.26302 13.9632 5.2591 14.0612 5.28561C14.1591 5.31213 14.2467 5.36782 14.3123 5.4453L14.3404 5.47811C14.8841 6.1203 15.3013 6.84374 15.5841 7.62967L15.5982 7.6703C15.6654 7.86405 15.6076 8.08124 15.4498 8.21718ZM9.00758 7.40155C7.49039 7.40155 6.2607 8.63124 6.2607 10.1484C6.2607 11.6656 7.49039 12.8953 9.00758 12.8953C10.5248 12.8953 11.7545 11.6656 11.7545 10.1484C11.7545 8.63124 10.5248 7.40155 9.00758 7.40155Z" fill="#1455AC"/>
</svg>
