<svg width="15" height="15" viewBox="0 0 15 15" fill="none" xmlns="http://www.w3.org/2000/svg">
<path d="M13.5197 11.7944H12.0395V15L8.26406 11.7944H4.63816C3.82179 11.7944 3.1579 11.0898 3.1579 10.2234V3.9394C3.1579 3.073 3.82179 2.36841 4.63816 2.36841H13.5197C14.3361 2.36841 15 3.073 15 3.9394V10.2234C15 11.0898 14.3361 11.7944 13.5197 11.7944Z" fill="#61B2FA"/>
<path d="M1.4802 0H10.3618C11.1781 0 11.842 0.649145 11.842 1.44737H2.96046C2.1441 1.44737 1.4802 2.09651 1.4802 2.89474V8.68421C0.663834 8.68421 -6.38962e-05 8.03507 -6.38962e-05 7.23684V1.44737C-6.38962e-05 0.649145 0.663834 0 1.4802 0Z" fill="#61B2FA"/>
</svg>
