<svg width="17" height="18" viewBox="0 0 17 18" fill="none" xmlns="http://www.w3.org/2000/svg">
<path d="M10.8923 17.0103C10.9254 16.8214 10.9867 16.6314 10.9879 16.4425C10.9953 14.8154 10.9941 13.1894 10.9916 11.5623C10.9904 10.6512 10.3442 10.005 9.43433 10.0026C8.05118 10.0001 6.66803 10.0026 5.28488 10.0026H5.0752C5.13405 9.89588 5.18065 9.80514 5.23215 9.71563C5.99362 8.39501 6.91817 7.2007 8.00458 6.13145C8.08429 6.05297 8.16276 6.01496 8.27803 6.01619C8.84208 6.02232 9.40613 6.01864 9.98367 6.01864C10.0205 6.33745 9.96159 6.63665 9.87453 6.93339C9.7372 7.39811 9.48951 7.79663 9.15844 8.14977C8.86783 8.46 9.00884 8.91369 9.41348 8.99462C9.59741 9.03141 9.75682 8.96642 9.87331 8.82664C10.0572 8.60592 10.2277 8.37539 10.403 8.14855C10.4325 8.11054 10.457 8.06884 10.4766 8.03941C10.6936 8.30918 10.9009 8.58017 11.1228 8.83644C11.2552 8.98849 11.4318 9.04244 11.6341 8.97746C11.8266 8.91615 11.9382 8.78126 11.975 8.58753C12.0118 8.39501 11.9247 8.24664 11.7972 8.11176C11.4048 7.70221 11.1522 7.21786 11.0468 6.66117C11.0075 6.45762 10.999 6.24794 10.9732 6.01742C11.1338 6.01742 11.2638 6.01742 11.395 6.01742C11.8315 6.01742 12.2693 6.01496 12.7058 6.02109C12.7696 6.02109 12.8505 6.04684 12.8934 6.09099C14.4053 7.63109 15.6794 9.3355 16.5132 11.3416C16.7989 12.0282 17 12.7382 17 13.4923C17 14.9981 16.2937 16.0171 14.8811 16.5431C14.165 16.8104 13.4195 16.922 12.6617 16.9759C12.5575 16.9833 12.4545 16.998 12.3502 17.0103H10.8886H10.8923Z" fill="white"/>
<path d="M0 11.365C0.12262 11.0891 0.333527 10.9947 0.633945 10.9959C3.55598 11.0032 6.47801 11.0008 9.40004 11.0008C9.81449 11.0008 9.99474 11.181 9.99474 11.5955C9.99474 13.1834 9.98984 14.7726 9.99965 16.3605C10.0021 16.6646 9.91627 16.8865 9.63056 17.0116H0.365407C0.198645 16.9356 0.0747981 16.8154 0 16.6462V11.3662V11.365ZM5.02006 15.4825C5.8318 15.4789 6.50621 14.8032 6.50866 13.9915C6.51111 13.1736 5.82689 12.4906 5.00902 12.4943C4.19115 12.498 3.51061 13.1871 3.52042 14.0025C3.53023 14.8155 4.21076 15.4874 5.02006 15.4838V15.4825ZM2.02936 14.4856C2.29299 14.4832 2.52597 14.2465 2.52352 13.9841C2.52106 13.7193 2.28441 13.4875 2.022 13.49C1.75837 13.4924 1.52539 13.7291 1.52784 13.9915C1.5303 14.2551 1.76695 14.4881 2.02936 14.4856ZM7.99604 13.49C7.73118 13.4949 7.50065 13.7327 7.50556 13.9952C7.51046 14.26 7.74957 14.4905 8.01075 14.4856C8.27561 14.4807 8.50614 14.2428 8.50123 13.9804C8.49633 13.7156 8.25845 13.4851 7.99604 13.49Z" fill="white"/>
<path d="M10.4987 0.71896C10.701 0.571816 10.8984 0.411186 11.113 0.276304C11.6673 -0.071936 12.2338 -0.0854227 12.8064 0.23952C13.2319 0.481081 13.5789 0.810928 13.8757 1.1935C14.0056 1.36149 14.0167 1.5491 13.9223 1.73916C13.3962 2.8035 12.8714 3.86784 12.3405 4.92973C12.3184 4.97387 12.2424 5.01679 12.1909 5.01679C11.0566 5.02169 9.92239 5.02169 8.78816 5.01679C8.73789 5.01679 8.66431 4.97019 8.64224 4.92482C8.1113 3.86293 7.58649 2.79859 7.06167 1.73425C6.97952 1.56871 6.96848 1.3946 7.07884 1.245C7.46387 0.726318 7.92369 0.294695 8.54905 0.0788844C8.98435 -0.071938 9.40371 0.00163523 9.79119 0.229708C10.0377 0.374399 10.2621 0.553423 10.4975 0.71896H10.4987Z" fill="white"/>
<path d="M5.01407 14.4857C4.73321 14.4857 4.51368 14.2624 4.51613 13.9804C4.51981 13.7069 4.73812 13.491 5.01407 13.491C5.29615 13.491 5.51568 13.7142 5.512 13.9963C5.50832 14.2698 5.28879 14.4857 5.01407 14.4857Z" fill="white"/>
</svg>
