<svg width="16" height="15" viewBox="0 0 16 15" fill="none" xmlns="http://www.w3.org/2000/svg">
<path d="M15.867 10.131C15.7713 10.3847 15.575 10.5092 15.3248 10.5906C13.2687 11.2608 11.215 11.9382 9.15894 12.6096C9.04764 12.6455 9.01174 12.6957 9.01293 12.8154C9.02011 13.9572 8.17398 14.8763 7.01907 14.99C5.94315 15.0965 4.92348 14.3401 4.71045 13.2582C4.52973 12.3391 4.83372 11.5947 5.57812 11.031C5.64993 10.9759 5.67507 10.9377 5.64395 10.8431C4.67813 7.91454 3.7183 4.98358 2.75129 2.05382C2.56937 1.5009 2.16845 1.21127 1.588 1.16699C1.23853 1.14066 0.88907 1.10715 0.539605 1.07484C0.203305 1.04611 -0.0252839 0.782818 0.00224242 0.46088C0.0261784 0.177238 0.28349 -0.0250204 0.612609 0.00250592C1.08534 0.0431971 1.56167 0.0719202 2.02723 0.156893C2.80036 0.298115 3.38439 0.739734 3.67402 1.46739C3.99835 2.2848 4.24848 3.13094 4.52494 3.9675C5.24063 6.1337 5.95272 8.29991 6.66362 10.4673C6.69593 10.5642 6.73423 10.6025 6.84434 10.6049C7.58755 10.6157 8.19193 10.9125 8.63475 11.5133C8.69698 11.5983 8.74844 11.6019 8.8394 11.572C10.9027 10.891 12.9672 10.2136 15.0316 9.5362C15.4637 9.39378 15.6647 9.47756 15.8682 9.88447V10.1322L15.867 10.131Z" fill="white"/>
<path d="M5.62473 3.37414C5.63909 3.09529 5.80186 2.89183 6.10824 2.7913C6.82273 2.55673 7.53721 2.32455 8.2517 2.09118C9.66632 1.62921 11.0809 1.16725 12.4956 0.705284C12.9408 0.560471 13.2184 0.70289 13.3656 1.15289C14.0334 3.18744 14.7012 5.2232 15.3679 7.25895C15.5199 7.72331 15.3774 7.99857 14.9131 8.15057C12.8139 8.83753 10.7147 9.52569 8.61553 10.2126C8.11527 10.3766 7.84958 10.239 7.68442 9.73393C7.0214 7.70775 6.35717 5.68277 5.69534 3.65659C5.66542 3.56444 5.64747 3.46869 5.62354 3.37414H5.62473Z" fill="white"/>
</svg>
