<svg width="18" height="18" viewBox="0 0 18 18" fill="none" xmlns="http://www.w3.org/2000/svg">
<g clip-path="url(#clip0_11700_64960)">
<path d="M15.9089 14.0909H13.3634C11.7594 14.0909 10.4544 12.7859 10.4544 11.1819C10.4544 9.57788 11.7594 8.27287 13.3634 8.27287H15.9089C16.1099 8.27287 16.2725 8.11022 16.2725 7.90923V6.81833C16.2725 6.0558 15.681 5.43566 14.9337 5.37553L12.8454 1.72786C12.6518 1.3905 12.3393 1.14938 11.9654 1.04926C11.5932 0.949817 11.2041 1.00204 10.871 1.19592L3.71189 5.3638H2.45453C1.65235 5.3638 1 6.01612 1 6.81833V15.5455C1 16.3476 1.65232 17 2.45453 17H14.818C15.6202 17 16.2725 16.3477 16.2725 15.5455V14.4546C16.2725 14.2536 16.1099 14.0909 15.9089 14.0909ZM13.2964 3.97987L14.0887 5.3638H10.9193L13.2964 3.97987ZM5.15732 5.3638L11.2371 1.82444C11.4015 1.7282 11.5936 1.70263 11.7772 1.75166C11.9629 1.80136 12.1178 1.92139 12.214 2.08935L12.2147 2.09068L6.5929 5.3638H5.15732Z" fill="#1455AC"/>
<path d="M15.9088 9.00012H13.3634C12.1603 9.00012 11.1816 9.97879 11.1816 11.1819C11.1816 12.385 12.1603 13.3637 13.3634 13.3637H15.9088C16.5104 13.3637 16.9997 12.8744 16.9997 12.2728V10.091C16.9997 9.48946 16.5104 9.00012 15.9088 9.00012ZM13.3634 11.9092C12.9625 11.9092 12.6362 11.5828 12.6362 11.1819C12.6362 10.781 12.9625 10.4547 13.3634 10.4547C13.7643 10.4547 14.0907 10.781 14.0907 11.1819C14.0907 11.5828 13.7644 11.9092 13.3634 11.9092Z" fill="#1455AC"/>
</g>
<defs>
<clipPath id="clip0_11700_64960">
<rect width="16" height="16" fill="white" transform="translate(1 1)"/>
</clipPath>
</defs>
</svg>
